<?xml version="1.0" encoding="UTF-8" standalone="no"?>
<svg
   width="4073"
   height="2223"
   viewBox="0 0 4073 2223"
   version="1.1"
   id="svg131"
   sodipodi:docname="logo.svg"
   inkscape:version="1.4.2 (f4327f4, 2025-05-13)"
   inkscape:export-filename="logo.png"
   inkscape:export-xdpi="96"
   inkscape:export-ydpi="96"
   xmlns:inkscape="http://www.inkscape.org/namespaces/inkscape"
   xmlns:sodipodi="http://sodipodi.sourceforge.net/DTD/sodipodi-0.dtd"
   xmlns="http://www.w3.org/2000/svg"
   xmlns:svg="http://www.w3.org/2000/svg">
  <sodipodi:namedview
     id="namedview131"
     pagecolor="#ffffff"
     bordercolor="#000000"
     borderopacity="0.25"
     inkscape:showpageshadow="2"
     inkscape:pageopacity="0.0"
     inkscape:pagecheckerboard="0"
     inkscape:deskcolor="#d1d1d1"
     showgrid="false"
     inkscape:zoom="0.46"
     inkscape:cx="2034.7826"
     inkscape:cy="953.26087"
     inkscape:window-width="2560"
     inkscape:window-height="1411"
     inkscape:window-x="-9"
     inkscape:window-y="-9"
     inkscape:window-maximized="1"
     inkscape:current-layer="svg131" />
  <path
     fill="#db654b"
     d="m 1780.8894,1236.4938 c 12.9313,12.1204 16.6594,18.5879 18.4844,36.6555 4.0149,39.314 0.3649,79.5263 2.2161,119.0423 -0.078,35.1951 8.7857,108.8528 -15.8251,132.7705 -15.3298,5.4325 -28.287,-4.7389 -41.3226,-12.4828 -16.2161,-4.7468 -90.3357,-51.7864 -108.9503,-64.7185 -41.4528,-28.8484 -53.4976,-81.1339 -59.9633,-129.4922 32.0413,-41.7489 152.5934,-67.7734 205.3608,-81.7748 z"
     id="path4"
     style="fill:#d45500;stroke-width:2.61697" />
  <path
     fill="#447450"
     d="m 1582.442,1484.5912 c 26.8532,-16.7227 28.0264,-15.3855 56.5219,-11.4898 27.4266,3.7484 122.6376,64.3427 136.0121,66.003 5.8659,4.4999 10.8194,7.1213 13.4003,13.8699 l 6.8047,3.9323 c 12.4618,24.1754 9.2551,43.1651 8.7598,70.4819 l -4.1714,22.1316 c -11.5233,8.6213 -116.4067,4.4499 -136.6377,4.2739 -28.9649,0.2653 -75.5537,1.7784 -102.6673,-1.408 -35.3002,-10.3447 -44.1643,-9.8561 -70.6002,-35.7991 -3.5457,-4.8939 -3.8845,-7.4577 -5.9703,-13.2185 l -4.0149,-5.4534 c 2.9981,-27.5009 10.7413,-38.2186 33.1623,-54.2031 4.6666,-4.7653 10.663,-9.8482 15.6947,-14.3559 6.9348,-6.717 27.2441,-27.254 36.2647,-28.0604 3.7541,-4.8833 12.5662,-12.3068 17.4413,-16.7044 z"
     id="path6"
     style="fill:#008000;stroke-width:2.61697" />
  <path
     fill="#e19a37"
     d="m 1414.6029,953.08132 c 25.1063,-1.62612 73.7286,-7.25806 86.764,18.05984 16.3205,31.62504 39.4194,81.56734 36.9948,117.72894 -0.9125,13.5231 -35.2218,31.5935 -46.7714,37.8796 -20.7784,6.0497 -57.8775,26.5078 -76.127,28.4124 -24.3243,2.5374 -15.4079,-98.6264 -15.6688,-116.0216 -0.4171,-27.4324 -4.7449,-66.59394 14.8084,-86.05918 z"
     id="path13"
     style="fill:#ffcc00;stroke-width:2.61697" />
  <path
     fill="#487a53"
     d="m 1449.6029,1344.1909 c 27.2441,-11.0855 49.7173,-17.6999 78.1086,-24.0649 6.3091,5.1066 17.7803,13.8175 22.9944,19.2997 12.9052,29.3869 42.1046,89.461 21.4044,118.2017 l -4.4321,5.8737 c -14.4693,15.5749 -29.6427,28.4676 -45.546,42.4793 -10.8455,8.5769 -21.5866,17.327 -32.1715,26.2427 -49.8215,49.8109 -71.669,18.3777 -75.9186,-38.9882 -1.2774,-17.1904 -1.3035,-41.116 -0.73,-58.2879 0.8082,-23.9835 -4.4841,-60.8359 11.6016,-78.8117 l 9.0727,-7.7572 c 5.892,-0.2233 10.0634,-2.1908 15.6165,-4.1872 z"
     id="path14"
     style="fill:#ffcc00;stroke-width:2.61697" />
  <path
     fill="#487a53"
     d="m 1527.0286,1143.5705 c 8.8642,-1.8255 11.9927,-1.5918 21.1956,-1.5419 l 20.5439,5.4717 c 28.0784,22.6912 31.1288,30.5034 42.8867,64.2432 14.2087,40.4225 8.3427,62.4173 -37.8027,66.9434 -12.4099,5.6216 -16.868,8.1828 -30.4249,10.1975 -6.3873,2.3039 -15.7208,6.0182 -21.9778,7.8202 -9.0205,3.5069 -21.9518,9.7826 -30.92,9.2388 l -6.3614,4.0612 -2.7636,0.57 c -27.583,5.8474 -44.3988,19.4835 -69.8701,11.6975 -3.8584,-6.6591 -4.5102,-9.8246 -6.7524,-17.2876 2.2422,-31.9506 -3.7281,-71.0439 6.6481,-99.5718 4.0672,-11.188 14.8083,-15.3988 25.0282,-19.3995 18.4322,-11.2957 70.0526,-35.4525 90.5704,-42.4427 z"
     id="path19"
     style="fill:#008000;stroke-width:2.61697" />
  <path
     fill="#b9624c"
     d="m 2622.3239,1639.7144 c -30.8681,18.7113 -122.0081,24.4819 -160.8537,18.49 -5.6314,-0.8643 -13.6873,-2.6847 -16.7636,-7.8543 -13.609,-22.72 -1.0688,-177.2883 8.3688,-206.7881 4.1453,-12.9427 8.9944,-23.4188 21.7171,-29.6156 36.4472,-17.7393 102.902,-16.5283 140.6005,-3.3729 4.041,6.3256 9.2552,13.4287 13.6091,19.6964 0.5475,87.9453 14.4237,85.3701 -2.5261,154.5691 6.6317,-22.1567 -1.6755,51.0033 -4.1521,54.8754 z"
     id="path30"
     style="fill:#d45500;stroke-width:2.61697"
     sodipodi:nodetypes="ccccccccc" />
  <path
     fill="#487a53"
     d="m 1960.4059,1330.2899 3.6759,0.4834 c 34.7265,3.5174 64.2388,0.2969 90.3879,32.1608 8.6817,19.439 12.5141,40.9505 5.475,61.6373 -0.1297,0.2574 -17.3893,34.7667 -15.9033,30.0619 -11.9406,16.6361 -32.1976,45.3086 -51.6727,52.0806 -16.1639,15.4015 -141.565,-1.3108 -164.4815,-8.4558 -14.1826,-15.5144 -10.1677,-50.6963 -8.9423,-70.7184 6.1005,-20.2323 22.4471,-29.3239 39.6539,-38.7333 l 7.1434,-7.6494 c 5.6313,-5.7267 5.1882,-5.6663 12.9313,-7.2398 8.1861,-9.7799 20.4135,-14.96 31.8065,-20.9915 5.2142,-9.3332 38.4285,-18.7584 49.9259,-22.6358 z"
     id="path32"
     style="fill:#008000;stroke-width:2.61697" />
  <path
     fill="#b9624c"
     d="m 1815.9435,1218.9818 c 21.3001,-38.7834 70.8349,-66.807 114.269,-68.4883 39.5496,-1.5288 103.0323,48.1719 103.5016,88.534 0.2607,24.2486 -57.4082,44.6201 -74.7975,61.1484 l -2.7636,0.683 c -83.9743,36.2379 -154.392,135.8808 -141.0697,-33.0854 1.1731,-14.7343 0.5735,-33.5638 0.8602,-48.7917 z"
     id="path37"
     style="fill:#ffcc00;stroke-width:2.61697" />
  <path
     fill="#487a53"
     d="m 2031.3958,688.47455 c 14.5216,-31.18634 85.4085,-15.38565 116.0158,-19.30759 20.8568,-2.67678 42.5477,0.60681 57.6427,16.55724 l 0.6519,8.7948 c 3.8063,16.1343 1.147,107.71264 1.0688,131.38608 l -16.8417,17.15887 c -34.3354,11.6582 -106.6301,19.06074 -134.0828,-10.9673 -19.0318,-11.94968 -14.1044,-14.8235 -23.7247,-31.27565 l -1.7466,-2.93423 -1.1472,-3.94821 c -8.6294,-31.31241 -9.907,-36.07757 -5.2403,-68.4749 0.7301,-16.22362 2.6071,-21.34078 7.4041,-36.98911 z"
     id="path39"
     style="fill:#008000;stroke-width:2.61697" />
  <path
     fill="#487a53"
     d="m 2441.7561,405.55827 c 14.5215,-38.68981 85.4084,-19.08731 116.0157,-23.95292 20.8568,-3.32091 42.5477,0.75276 57.6428,20.54083 l 0.6519,10.91092 c 3.8063,20.01615 1.147,133.62824 1.0688,162.99756 l -16.8417,21.28727 c -34.3354,14.46308 -106.6302,23.64669 -134.0828,-13.60583 -19.0318,-14.82494 -14.1044,-18.39017 -23.7247,-38.8006 l -1.7466,-3.64021 -1.1472,-4.89825 c -8.6295,-38.84609 -9.9071,-44.75788 -5.2403,-84.95007 0.73,-20.12694 2.6071,-26.47535 7.4041,-45.8887 z"
     id="path39-2"
     style="fill:#008000;stroke-width:2.91484" />
  <path
     fill="#487a53"
     d="m 1819.084,904.75372 c 13.1137,6.63822 138.0977,71.08862 142.582,70.43992 l 5.7356,6.1153 c 4.4841,6.24943 8.9684,13.7596 15.2253,17.88124 -0.3388,5.55042 -0.5213,15.02052 -1.7205,20.11392 -4.2237,17.1614 -24.8978,57.991 -37.7248,66.6178 -3.5455,4.6574 -8.0819,9.6407 -9.7505,14.9102 l -12.3315,7.5049 c -9.1249,6.9691 -14.313,10.9673 -24.5588,16.6677 -10.611,6.6774 -23.881,15.8084 -35.3522,19.93 -24.4025,-6.139 -2.0597,-10.0294 -38.0116,-2.5637 -5.8658,-6.189 -5.3184,-206.81191 -6.1526,-230.86616 l -5.162,-2.08043 z"
     id="path42"
     style="fill:#008000;stroke-width:2.61697" />
  <path
     fill="#db654b"
     d="m 1948.482,811.53796 c 4.1453,1.40277 18.354,-0.0657 23.6725,-0.37301 24.6108,13.79113 44.4769,28.43859 53.7582,55.61645 9.0466,26.51839 -32.8233,82.57596 -60.7192,80.49554 -14.7561,-1.10338 -42.7563,-16.14224 -55.0096,-23.86531 l 5.1619,-7.09779 -0.6778,-4.24761 c -11.8361,-10.65476 -44.7898,-6.85094 -66.0116,-23.19537 -24.8978,-7.60746 -30.6854,-51.48696 -5.866,-57.8178 19.9966,-5.10665 86.4774,-17.26123 105.6916,-19.5151 z"
     id="path46"
     style="fill:#d45500;stroke-width:2.61697" />
  <path
     fill="#487a53"
     d="m 1672.9476,1083.5727 c 18.5626,-2.9684 25.3931,-2.5876 44.2684,3.7065 l 26.462,3.7432 c 14.1044,4.4316 24.6371,4.9938 36.1604,8.3877 16.9462,27.9973 11.6798,57.4525 10.3242,90.7877 -5.3186,8.2483 -10.5587,16.5807 -16.1641,24.6086 -7.7169,1.3397 -23.151,3.5437 -29.9034,6.0445 l -15.9292,5.4376 c -5.4229,1.1427 -4.1975,-0.1235 -7.5606,2.8712 -7.1175,1.7942 -16.1118,4.3527 -23.2293,5.4192 -3.9627,1.3267 -8.2384,2.0543 -10.8193,4.7626 -22.8382,0.3966 -48.8309,-2.8738 -55.4009,-29.7022 -2.6331,-2.3747 -6.1266,-7.8413 -8.3426,-10.9724 -11.8884,-25.1315 -11.81,-36.9498 -4.0411,-63.7703 l 3.9107,-9.8297 1.9292,-4.6338 c 19.3708,-22.1683 21.3783,-24.7453 48.3356,-36.8604 z"
     id="path47"
     style="fill:#ffcc00;stroke-width:2.61697" />
  <path
     fill="#487a53"
     d="m 1539.3927,971.97917 c 14.2607,-13.99084 122.8202,-11.74743 140.1834,-4.0454 l 7.7691,8.97855 c -1.5121,13.75706 -12.7227,76.48168 -21.326,84.38588 -16.92,29.2741 -32.8233,43.7902 -67.6541,46.7349 -10.663,-5.2511 -11.9665,-6.3385 -20.3875,-14.7971 l -2.6071,-5.8082 c -5.7356,-7.9225 -14.4173,-29.7599 -18.7189,-39.8024 -0.5215,-3.5568 -11.367,-36.201 -13.1397,-41.8698 -2.7897,-11.40074 -3.2328,-22.09471 -4.1192,-33.77643 z"
     id="path54"
     style="fill:#008000;stroke-width:2.61697" />
  <path
     fill="#487a53"
     d="m 2394.8539,1201.2448 c -16.3276,14.227 -18.9588,13.2131 -40.6636,13.0857 -12.9414,2.1211 -40.7658,-3.4619 -54.8733,-5.6725 -6.3429,-0.5975 -19.8475,-1.1952 -24.2713,-5.5943 -22.6177,-1.4967 -30.0561,-5.0584 -44.8524,-22.7199 -2.2364,-2.6741 -4.4369,-5.3822 -6.6191,-8.1062 -4.6644,-30.7858 -5.3674,-47.7237 -4.1759,-79.4366 -0.1027,-6.209 -0.5676,-14.5319 0.266,-20.4973 -0.2028,-10.2304 -0.9337,-24.3984 -0.6435,-34.282 0.6644,-27.2867 3.3976,-79.89524 1.4914,-105.54694 1.783,-18.62705 -7.1483,-1.65497 3.4407,-16.30159 l -2.2022,-8.86348 2.5566,-22.21488 c -1.6576,-3.0257 0.6341,-3.66769 -1.6376,-17.17681 1.187,-23.60674 -7.6084,-17.61116 2.4637,-36.50623 7.6717,-4.73182 -3.646,-5.78608 4.3353,-2.11138 l -4.857,2.63283 c 11.7418,-8.71353 36.9292,-10.56918 51.0723,-11.04797 l 17.015,-2.1874 c 18.8198,-3.63473 46.2402,-1.31866 65.7886,-3.56493 10.2424,-1.16229 24.7312,-1.02119 35.1226,-0.26532 29.7243,-7.90676 26.117,22.99275 23.1974,62.80307 -2.1839,4.2369 -1.8165,25.86297 2.1903,29.3143 l -0.7473,15.00946 c -3.0495,5.89713 2.0844,12.02912 0.4215,19.01148 -2.2314,9.82165 3.6491,15.02833 1.0569,24.75142 -7.1088,4.28136 3.2408,35.17567 -2.1893,47.24277 l -7.847,36.2191 c 8.7915,6.2623 -10.7072,-10.8729 7.5406,2.6551 0.4189,-9.4178 -4.7318,7.521 0.48,14.1253 5.5198,-0.4605 1.6384,29.0043 5.2612,32.8353 -23.5378,28.4847 -10.7014,-15.8565 -0.8367,-0.4446 4.7539,30.3069 4.0039,36.0665 3.6048,27.7018 -3.1785,5.1852 2.6114,67.6316 -3.406,81.2723 z"
     id="path62"
     style="fill:#008000;stroke-width:2.45623"
     sodipodi:nodetypes="ccccccccccccccccccccccccccccccccccc" />
  <path
     fill="#447450"
     d="m 2148.8823,1197.8285 c 18.067,-9.6064 20.231,-13.4549 39.6798,-4.2765 l 7.0914,1.7942 1.6164,9.2886 c 0.9125,47.4442 1.1731,94.896 0.7559,142.348 -0.052,22.615 0.7823,68.186 -2.7634,88.4735 l -3.311,5.4455 c -15.434,-2.669 -34.8048,-16.8435 -46.1195,-27.4509 l -14.7822,-11.5714 c -17.2329,-11.9024 -36.8123,-34.8613 -53.6019,-48.353 -8.7858,-7.0795 -19.9182,-18.4118 -27.4266,-27.0228 -44.0077,-50.5122 -7.8734,-57.9884 23.3074,-85.1056 4.771,-1.4344 8.7078,-3.6488 13.218,-5.8396 l 11.8361,-8.4979 c 6.6481,-1.9886 17.4677,-9.2047 23.829,-13.0688 8.8639,-5.5191 17.5979,-10.9962 26.6706,-16.1633 z"
     id="path63"
     style="fill:#008000;stroke-width:2.61697" />
  <path
     fill="#c7974c"
     d="m 2261.9084,378.22219 c 91.1179,-0.70924 100.0082,-10.84112 130.7457,84.45951 16.3465,50.60424 43.2257,98.32679 50.004,152.46419 -18.9534,46.35656 -41.2962,65.69303 -80.1419,97.00021 -43.5386,32.60747 -90.2316,62.57231 -137.055,12.11781 -4.5625,-88.60208 1.0429,-180.76884 -1.095,-269.58633 -0.4432,-18.70864 -0.8082,-56.28618 11.6278,-70.47397 9.0466,-5.8343 15.3557,-5.33519 25.9144,-5.98142 z"
     id="path74"
     style="fill:#ffcc00;stroke-width:2.61697" />
  <path
     fill="#e19a37"
     d="m 2342.3992,1366.2526 c 11.4973,-1.3292 23.8028,-1.4922 35.4304,-1.9229 69.4529,39.9312 33.5533,116.5521 37.2033,181.155 0.6256,11.1931 -1.6164,37.4014 -3.7804,47.7304 -2.7634,15.5616 -5.0837,27.3958 -5.7356,43.157 -8.082,11.7186 -11.6275,16.6728 -26.6705,18.9004 -39.8886,5.9079 -87.9634,-0.3205 -127.3825,2.0491 -1.5905,-1.5133 -7.4563,-7.3843 -7.8214,-8.6898 -9.203,-32.1609 -6.3612,-155.2829 0.73,-181.8485 39.5757,-41.7333 52.1419,-60.6756 98.0267,-100.5307 z"
     id="path79"
     style="fill:#008000;stroke-width:2.61697" />
  <path
     fill="#e19a37"
     d="m 2606.7174,1114.7576 c 8.5596,-0.7776 10.2178,-1.0167 16.2677,5.3825 9.7919,26.5839 -1.1875,183.0804 3.2042,223.7446 4.5262,41.7647 -24.7152,44.431 -53.2619,43.5694 -40.9158,-1.232 -77.1258,13.3551 -118.1534,-6.5198 -24.0877,-14.6949 -42.3945,-42.7394 -19.8752,-70.5503 40.8035,-50.3336 84.8786,-96.9687 125.9063,-147.1763 13.3994,-16.4049 30.4736,-34.906 45.9123,-48.4501 z"
     id="path80"
     style="fill:#ffcc00;stroke-width:2.42614" />
  <path
     fill="#db654b"
     d="m 2370.5275,789.07965 c -8.6347,-3.55645 -22.4428,-10.79525 -25.9699,-18.40313 -2.3328,-5.03929 -1.6707,-9.6211 1.6292,-14.26941 7.5584,-10.65949 194.9254,-117.82292 211.6637,-120.46901 4.3916,-0.69012 47.6328,0.34069 51.0572,2.53163 27.6126,17.66085 20.2874,121.80538 21.9343,150.47822 0.2505,4.31456 0.2902,10.15938 -3.5731,13.43843 -20.7898,17.50926 -61.3554,15.48133 -88.7288,15.5203 -59.0935,3.81903 -111.5581,-8.32533 -166.6336,-27.77368 -0.4658,-0.3561 -0.9291,-0.71393 -1.379,-1.05335 z"
     id="path81"
     style="fill:#d45500;stroke-width:2.36217"
     sodipodi:nodetypes="cccccccccc" />
  <path
     fill="#e19a37"
     d="m 2029.9206,1608.5131 -3.4675,-2.7975 c -19.0057,-52.6926 21.7693,-132.76 64.7341,-162.6302 35.3782,-24.5772 94.8721,22.5412 112.1311,53.8274 8.1603,23.1926 21.5085,156.0499 -1.0429,158.0751 -31.8586,2.8607 -127.0175,7.4447 -154.1312,-2.2249 -12.4359,-13.4129 -15.0952,-26.6523 -18.2236,-44.2499 z"
     id="path84"
     style="fill:#ffcc00;stroke-width:2.61697" />
  <path
     fill="#db654b"
     d="m 2566.0095,1080.5693 c -20.6039,-5.4788 -40.5585,-12.6087 -59.5359,-21.2847 -33.8361,-15.4311 -56.8933,-36.648 -67.0418,-68.30139 -23.2175,-72.55392 10.761,-88.10463 88.0467,-103.1718 15.3332,-5.82797 38.3728,-14.67149 55.3221,-14.26383 11.9213,0.28769 22.803,11.08748 29.7398,18.58313 10.9146,11.82947 8.8283,160.99509 3.8029,180.45289 -1.3237,5.0787 -4.4211,7.9122 -9.7503,10.5248 -11.5472,5.6893 -28.5419,0.094 -40.5835,-2.5391 z"
     id="path86"
     style="fill:#d45500;stroke-width:2.9218" />
  <path
     fill="#b9624c"
     d="m 2029.6409,1003.8554 c 40.1492,-3.2389 122.768,51.718 157.0252,75.4361 9.9852,6.9034 8.5252,30.0594 8.2123,41.2447 -17.7021,27.8212 -45.6501,34.089 -71.6168,53.2126 -20.1528,12.449 -28.8866,16.2894 -51.1773,24.1884 l -28.8866,-8.8762 c -19.0577,-22.5991 -40.2796,-41.4469 -57.1735,-66.0398 -29.8773,-43.4985 5.7617,-95.1456 43.6167,-119.1658 z"
     id="path87"
     style="fill:#d45500;stroke-width:2.61697" />
  <path
     fill="#db654b"
     d="m 2288.3221,1230.0607 c 3.2261,0.063 14.1469,0.3354 16.7039,1.4537 19.07,8.344 74.0208,28.9079 113.0936,27.8719 -2.819,15.2221 2.258,34.2205 -2.8812,43.3897 l -0.1675,3.7927 c -10.1563,15.1678 -39.7409,24.7903 -59.4557,36.4355 l -1.3857,0.825 c -7.0735,-0.062 -33.3363,13.3599 -44.9024,8.6546 -29.0109,-11.8134 -53.3618,-34.4317 -68.5605,-57.0236 -10.8251,-16.105 17.1105,-54.5313 36.0129,-61.2577 z"
     id="path88"
     style="fill:#d45500;stroke-width:2.13364"
     sodipodi:nodetypes="ccccccccccc" />
  <path
     fill="#b9624c"
     d="m 1850.3146,1523.7608 c 26.5141,-1.0034 105.9784,4.2583 128.1907,18.2936 22.0822,13.9567 49.0656,82.3895 31.7284,107.2609 -7.5865,5.1749 -8.9423,4.639 -18.5364,5.0305 -48.9352,0.018 -100.1385,3.3781 -148.3175,-2.803 -18.4061,-1.7441 -19.8922,-27.1277 -18.1193,-41.8934 4.6406,-38.8543 -14.0001,-65.5066 25.0541,-85.8886 z"
     id="path90"
     style="fill:#d45500;stroke-width:2.61697" />
  <path
     fill="#c97d48"
     d="m 1873.7171,672.43481 c 26.2011,-3.8694 88.4064,-5.57425 114.7381,0.73552 30.9984,7.42357 17.5197,51.1664 8.5774,71.4039 -11.5755,26.2294 -32.9798,27.06475 -54.3579,38.43127 l -2.164,1.17946 c -28.0261,3.42282 -90.075,20.06149 -111.5053,7.49449 -17.1025,-20.25588 -15.1994,-93.9793 2.9461,-114.93919 4.849,-5.59788 32.8753,-4.2608 41.7656,-4.30545 z"
     id="path93"
     style="fill:#ffcc00;stroke-width:2.61697" />
  <path
     fill="#e19a37"
     d="m 2074.8533,977.43361 c -6.8005,-7.73633 -24.3789,0.98739 -35.6853,-7.27658 -5.7545,-11.89844 -1.4427,-23.87892 7.3203,-33.54448 6.6148,-7.27639 8.4519,-15.44416 11.9223,-24.5445 23.4037,-22.39203 85.7923,-14.44951 116.7269,-18.01665 8.2634,5.3675 11.5627,1.24423 20.0132,7.24808 2.657,9.45864 1.1229,16.18398 0.8617,25.6742 -1.9318,69.07736 -38.4532,51.59906 -86.1174,47.02311 l 9.1314,2.26048 c -14.8706,1.84373 -28.8433,-1.43753 -44.1731,1.17634 z"
     id="path94"
     style="fill:#ffcc00;stroke-width:2.61697" />
  <path
     fill="#d0654b"
     d="m 1709.4119,979.11617 c 4.1192,-37.30438 66.7416,-33.95251 86.5555,-17.45307 11.3669,9.46735 9.229,62.617 7.0391,77.1173 -6.1528,40.2256 -30.2944,29.4448 -59.4157,21.5642 -5.4489,-1.4764 -16.19,-4.3737 -19.6574,-8.54 -33.1884,-13.0136 -20.0485,-43.8847 -14.5215,-72.68843 z"
     id="path95"
     style="fill:#d45500;stroke-width:2.61697" />
  <path
     fill="#d0654b"
     d="m 2475.7628,1096.1318 c 23.7054,-34.976 67.2533,-9.4149 72.4572,13.7543 2.9846,13.2939 -28.0842,64.4541 -37.7257,77.8401 -26.8024,37.106 -38.3208,17.9825 -55.0605,-0.08 -3.1313,-3.3812 -9.3109,-10.034 -9.511,-15.3381 -16.8386,-24.5244 9.835,-50.0056 29.84,-76.1766 z"
     id="path95-1"
     style="fill:#008000;stroke-width:2.49098" />
  <defs
     id="defs104">
    <linearGradient
       id="gradient_0"
       gradientUnits="userSpaceOnUse"
       x1="1406.484"
       y1="1003.605"
       x2="1406.5656"
       y2="1048.9"
       gradientTransform="matrix(1.44741,0,0,1.44727,784.36914,173.6234)">
      <stop
         offset="0"
         stop-color="#ACAEA8"
         id="stop103" />
      <stop
         offset="1"
         stop-color="#DADBD5"
         id="stop104" />
    </linearGradient>
  </defs>
</svg>
